<?xml version="1.0" encoding="UTF-8" standalone="no"?>
<svg
   xmlns:dc="http://purl.org/dc/elements/1.1/"
   xmlns:cc="http://creativecommons.org/ns#"
   xmlns:rdf="http://www.w3.org/1999/02/22-rdf-syntax-ns#"
   xmlns:svg="http://www.w3.org/2000/svg"
   xmlns="http://www.w3.org/2000/svg"
   xmlns:sodipodi="http://sodipodi.sourceforge.net/DTD/sodipodi-0.dtd"
   xmlns:inkscape="http://www.inkscape.org/namespaces/inkscape"
   class="logo"
   viewBox="0 0 160 15"
   version="1.1"
   id="svg4"
   sodipodi:docname="logo.svg"
   width="160"
   height="15"
   inkscape:version="0.92.1 r15371">
  <metadata
     id="metadata10">
    <rdf:RDF>
      <cc:Work
         rdf:about="">
        <dc:format>image/svg+xml</dc:format>
        <dc:type
           rdf:resource="http://purl.org/dc/dcmitype/StillImage" />
        <dc:title></dc:title>
      </cc:Work>
    </rdf:RDF>
  </metadata>
  <defs
     id="defs8" />
  <sodipodi:namedview
     pagecolor="#ffffff"
     bordercolor="#666666"
     borderopacity="1"
     objecttolerance="10"
     gridtolerance="10"
     guidetolerance="10"
     inkscape:pageopacity="0"
     inkscape:pageshadow="2"
     inkscape:window-width="1366"
     inkscape:window-height="705"
     id="namedview6"
     showgrid="false"
     inkscape:zoom="5.2433803"
     inkscape:cx="131.74923"
     inkscape:cy="-15.253511"
     inkscape:window-x="-8"
     inkscape:window-y="-8"
     inkscape:window-maximized="1"
     inkscape:current-layer="svg4" />
  <g
     id="g37"
     transform="matrix(0.97739366,0,0,0.97739366,50.787813,-0.79310215)">
    <path
       inkscape:connector-curvature="0"
       id="text4169"
       d="M 13.012097,3.151792 C 12.681596,3.164211 12.35724,3.232073 12.034644,3.2969857 12.393162,5.1945224 11.774639,7.09311 11.210522,8.901828 10.704584,10.318986 10.180748,11.77392 9.322757,13.025389 8.514884,9.95763 7.720694,6.862038 6.446233,3.936627 6.196563,3.3043466 5.368073,3.0772043 4.794123,3.4537661 4.468943,3.616426 4.191243,3.8503194 3.920573,4.0844363 c 1.19997,1.3244477 1.66954,3.0694497 2.31586,4.6803577 0.754789,2.082212 1.410178,4.189631 1.81697,6.361896 0.626437,0.105535 1.372894,0.110658 1.796906,-0.429792 1.495645,-1.559534 2.22591,-3.617117 3.019692,-5.555102 0.144752,-0.390966 0.282143,-0.784484 0.40947,-1.181022 0.878355,2.33707 1.588287,4.721388 2.055718,7.166102 0.617184,0.09495 1.350096,0.122475 1.785795,-0.395219 1.691983,-1.824175 2.538313,-4.199161 3.351826,-6.471806 C 20.9204,6.801242 21.39724,5.2767776 21.256363,3.7422866 21.119069,3.1021727 20.306417,3.0718223 19.777039,3.2115897 19.309559,3.1890797 19.326792,3.4444686 19.428523,3.8084365 19.543622,6.42554 18.52428,8.940623 17.535442,11.327089 c -0.268004,0.585873 -0.56002,1.165639 -0.933825,1.69699 C 15.899546,10.381919 15.304291,7.667706 14.031581,5.2114223 13.800989,4.78924 14.113451,4.2570471 13.968151,3.7869468 13.896531,3.3453467 13.452903,3.1055729 13.012097,3.151792 Z m -41.267614,0.1044565 c -0.96691,0.061114 -2.00299,-0.064887 -2.91699,0.2911369 -0.60225,0.3545701 -0.36716,1.137943 -0.12572,1.6375021 2.09575,-0.5053274 4.26941,-0.5783685 6.41428,-0.4324059 -2.25461,2.7964004 -4.57976,5.5453404 -6.79393,8.3689554 -0.37944,0.576478 -0.30253,1.497158 0.26133,1.89687 2.36623,0.23986 4.7661,0.295879 7.13664,0.08484 0.51596,-0.05086 1.31053,-0.202814 1.28316,-0.848928 -0.028,-0.333312 -0.0857,-0.863877 -0.34971,-0.990828 -2.19443,0.530157 -4.49967,0.618588 -6.76181,0.528709 2.3818,-2.883972 4.81609,-5.731699 7.16658,-8.6372966 0.33016,-0.4922719 0.25982,-1.3823026 -0.35657,-1.5868214 -1.63716,-0.2575481 -3.30015,-0.3319996 -4.95726,-0.3117305 z m 67.411805,1.4964189 c -0.338304,0.027968 -0.907347,-0.029817 -0.691204,0.4578203 0.04119,0.5089923 0.06489,1.0108453 0.0831,1.5218323 -0.54964,0.02379 -1.470422,-0.105058 -1.659129,0.56695 -0.03126,0.347196 -0.09408,1.033316 0.446975,0.851055 0.411526,0.09405 1.406137,-0.413193 1.252239,0.265839 0.07623,1.698335 -0.253306,3.441932 0.189133,5.10909 0.226438,0.963621 1.128992,1.682959 2.152834,1.739902 0.792732,0.07471 1.872731,0.04775 2.303806,-0.712704 0.155042,-0.436181 -0.157201,-0.86385 -0.471501,-1.151092 -0.538553,0.680848 -1.960252,0.915579 -2.396457,0.03532 -0.39451,-1.512764 -0.137423,-3.086005 -0.191075,-4.638933 -0.206238,-0.739791 0.265929,-0.816214 0.90079,-0.738127 0.670131,-0.08522 1.523719,0.178669 2.080423,-0.294866 0.248996,-0.317924 0.175845,-0.779198 0.0076,-1.115775 -0.975227,0.106914 -1.938647,0.08864 -2.924963,0.09997 C 40.197049,6.159193 40.565375,5.306961 39.926324,4.902905 39.696756,4.7699784 39.418369,4.7466664 39.156319,4.7526652 Z M -17.914867,6.561151 c -1.97612,-0.0043 -3.80174,1.526175 -4.01597,3.422065 -0.243,1.623591 -0.005,3.591901 1.50607,4.606609 1.38486,0.928973 3.34504,0.922309 4.8038,0.155285 0.60095,-0.279696 0.64253,-1.150326 0.0558,-1.467641 -0.27306,-0.1751 -0.63374,-0.396946 -0.75542,0.01495 -0.65972,0.86294 -2.06294,0.81357 -2.93217,0.285531 -0.63444,-0.444956 -0.90587,-1.217048 -1.02221,-1.934244 1.45455,-0.06313 3.0159,0.05866 4.36206,-0.566763 1.09385,-0.591047 1.42935,-2.101894 0.8358,-3.127195 -0.59095,-0.944589 -1.70471,-1.448663 -2.8378,-1.388596 z m 8.1709,4.87e-4 c -0.70661,0.02651 -1.34218,0.595327 -1.77667,0.961238 0.0581,-0.588361 -0.59252,-0.944355 -1.14013,-0.83884 -0.32215,0.02933 -0.82321,-0.01283 -0.62505,0.443718 0.19601,2.404921 0.047,4.844716 0.10353,7.263173 0.0189,0.581584 0.65426,0.888241 1.19832,0.773997 0.31135,-0.05269 0.95896,-0.08287 0.68459,-0.506966 -0.4303,-1.765279 -0.28147,-3.598441 -0.25785,-5.391254 0.39534,-0.731532 1.35026,-1.569052 2.22735,-1.022156 0.23478,0.308472 0.4057,0.163359 0.55403,-0.10726 0.41265,-0.45709 0.36408,-1.336153 -0.3314,-1.503519 -0.2049,-0.06273 -0.42284,-0.07793 -0.63672,-0.072131 z m 5.33971,-4.87e-4 c -1.78455,-0.03852 -3.39807,1.267011 -3.79714,2.914168 -0.46633,1.798415 -0.11534,4.013988 1.55754,5.14646 1.76379,1.184955 4.55772,0.806676 5.71685,-1.004402 0.90826,-1.39552 0.95339,-3.227616 0.3456,-4.740028 -0.61808,-1.466105 -2.17839,-2.406301 -3.82285,-2.316198 z m 29.932202,4.87e-4 c -1.045301,0.04348 -2.330581,0.205534 -2.953777,1.117083 -0.327424,0.493917 -0.0871,1.224904 0.538832,1.353279 0.342707,0.173151 0.549069,0.04978 0.662598,-0.285717 0.571818,-0.910281 2.068465,-1.142865 2.893461,-0.438573 0.380743,0.522567 0.372621,1.199868 0.404557,1.812034 -1.389401,0.141669 -2.879818,0.162396 -4.13185,0.823517 -1.047354,0.579041 -1.035414,1.954584 -0.678187,2.923696 0.467839,1.221393 2.016303,1.557467 3.224073,1.39495 0.615565,-0.08579 1.192961,-0.347431 1.692404,-0.697755 0.151446,0.730307 1.132459,0.714257 1.683265,0.455578 0.305642,-0.1523 -0.09528,-0.611313 -0.06618,-0.920313 -0.363758,-1.852296 0.06648,-3.766491 -0.227662,-5.633058 -0.142033,-1.0321 -1.119246,-1.764263 -2.161963,-1.85822 -0.290739,-0.04298 -0.585824,-0.05242 -0.87957,-0.0465 z m 7.838136,9.76e-4 c -1.309874,0.06852 -2.830046,0.920592 -2.917385,2.297511 -0.119382,1.094479 0.572594,2.204798 1.679949,2.540435 0.918804,0.362764 2.099244,0.280388 2.820287,1.009074 0.443605,0.717598 -0.276503,1.521752 -1.060744,1.519964 -0.940808,0.08377 -2.209603,-0.154074 -2.495124,-1.162678 -0.581976,0.0867 -1.297858,0.533235 -1.10082,1.184727 0.294987,0.897875 1.424294,1.166671 2.282892,1.298867 1.416619,0.217642 3.18687,-0.249473 3.783055,-1.618033 0.448584,-1.065578 0.12081,-2.452755 -0.989911,-3.013205 -1.044406,-0.583889 -2.404646,-0.428856 -3.304624,-1.239666 -0.50862,-0.725638 0.333547,-1.527666 1.11386,-1.471378 0.807305,-0.0086 1.756031,0.352843 2.01155,1.155577 0.626986,-0.05017 1.290613,-0.572052 1.098683,-1.226773 C 36.023031,6.974972 34.94061,6.724434 34.126171,6.596435 33.874218,6.567495 33.619786,6.554625 33.366081,6.562614 Z m 14.745523,-0.0015 c -1.976107,-0.0043 -3.801735,1.526177 -4.015966,3.422066 -0.242998,1.623591 -0.0052,3.5919 1.506064,4.606608 1.384874,0.928975 3.345042,0.92231 4.803803,0.155286 0.600947,-0.279696 0.642531,-1.150326 0.05584,-1.467641 -0.273067,-0.1751 -0.633739,-0.396948 -0.755408,0.01495 -0.65934,0.862323 -2.063083,0.813799 -2.932185,0.285531 -0.634426,-0.444956 -0.905862,-1.217048 -1.022215,-1.934244 1.45458,-0.06313 3.015902,0.05866 4.362078,-0.566763 1.093837,-0.591048 1.429348,-2.101896 0.835783,-3.127193 C 50.358457,7.005123 49.24469,6.50105 48.111602,6.561115 Z m -65.914971,1.330445 c 0.90319,-0.05427 1.80157,1.017309 1.14754,1.768308 -0.83036,0.826997 -2.16775,0.633197 -3.25522,0.734942 -0.46097,0.155644 -0.42512,-0.160526 -0.34929,-0.466976 0.11702,-1.198329 1.20283,-2.107139 2.45697,-2.036274 z m 66.026483,0 c 0.903166,-0.05427 1.801561,1.017309 1.147516,1.768308 -0.830356,0.826997 -2.16771,0.633197 -3.255202,0.734942 -0.460958,0.155644 -0.425107,-0.160526 -0.349291,-0.466976 0.112514,-1.193536 1.208905,-2.110618 2.456977,-2.036274 z m -52.535703,0.01551 c 1.33,-0.05837 2.2055,1.193709 2.39235,2.31844 0.24094,1.258188 0.0316,2.948696 -1.33882,3.536803 -1.05513,0.456872 -2.45529,0.102245 -2.9637,-0.952827 -0.65685,-1.219938 -0.74095,-2.815356 0.0179,-4.003592 0.41102,-0.609678 1.16169,-0.919784 1.89226,-0.898824 z m 31.346707,3.615099 c -0.06273,0.608348 0.01281,1.262693 -0.05313,1.845297 -0.791451,0.65617 -2.118181,0.928928 -2.968377,0.231901 -0.473506,-0.516098 -0.436458,-1.475789 0.330815,-1.720845 0.856573,-0.333579 1.79269,-0.370475 2.698671,-0.486597 l -0.0059,0.09551 -0.0022,0.03473 z"
       style="font-style:normal;font-variant:normal;font-weight:normal;font-stretch:normal;font-size:180.00001526px;line-height:125%;font-family:Overlock;-inkscape-font-specification:'Overlock, Normal';text-align:start;letter-spacing:0px;word-spacing:0px;writing-mode:lr-tb;text-anchor:start;fill:#dc6b00;fill-opacity:1;stroke:none;stroke-width:0.04283188px;stroke-linecap:butt;stroke-linejoin:miter;stroke-opacity:1" />
    <g
       inkscape:label="Layer 1"
       id="layer1-4"
       transform="matrix(0.03189025,0,0,0.03062334,-57.008047,-9.3232519)">
      <path
         inkscape:connector-curvature="0"
         id="path4151"
         d="m 551.24822,828.14709 c -54.32353,-3.95493 -99.15427,-20.29947 -129.25,-47.12239 -18.14638,-16.17302 -34.44622,-42.92262 -42.86578,-70.34685 -5.69008,-18.53377 -7.98787,-37.82128 -6.30759,-52.94543 0.48565,-4.3713 0.45942,-5.53422 -0.13905,-6.16626 -0.40567,-0.42842 -3.21258,-1.92885 -6.23758,-3.33429 -7.05538,-3.278 -18.75662,-9.72349 -31.625,-17.42027 -24.91421,-14.90157 -32.27374,-17.82624 -51.6843,-20.53931 -8.62486,-1.20553 -25.87057,-0.92009 -31.9157,0.52824 -12.20099,2.92318 -19.95176,6.65689 -28.05,13.51228 -5.29127,4.47922 -7.76346,8.1357 -13.34161,19.73289 -13.48266,28.03098 -14.85874,51.59788 -4.42364,75.76003 2.80128,6.48628 6.80949,11.7241 10.34025,13.51237 2.83675,1.43676 10.41481,1.53023 14.61268,0.18023 6.2138,-1.99831 13.49544,-7.32746 19.54087,-14.30123 4.30334,-4.96417 5.17145,-6.86528 5.17145,-11.32523 0,-2.7506 -0.37598,-4.40424 -1.62886,-7.16408 -2.68397,-5.91225 -3.90299,-21.52143 -9.27764,-25.37392 -2.42091,-1.73529 -14.25946,1.73897 -15.24262,7.10782 l -1.36255,7.44056 -2.03247,11.57536 -2.03248,11.57536 -2.40967,-3.40304 c -4.44993,-6.28439 -6.71371,-12.74875 -6.71371,-19.17139 0,-18.81699 18.33873,-38.57094 35.80762,-38.57094 9.94788,0 18.22094,6.47417 25.31035,19.80685 5.90413,11.10357 9.79251,27.35012 9.82195,41.03835 0.0435,20.21155 -7.61388,41.7985 -17.8789,50.40265 -13.1222,10.99904 -30.9525,13.68014 -51.82244,7.79241 -9.65141,-2.72281 -16.49575,-9.66907 -20.45239,-13.56211 -3.43734,-3.38209 -11.29374,-7.50931 -14.82612,-13.19244 -15.79543,-25.41275 -18.6187,-52.85634 -8.03822,-78.13562 6.36716,-15.21267 24.67367,-45.00945 39.17724,-63.76724 7.1207,-9.20936 22.38429,-25.70171 30.12591,-32.55115 16.7641,-14.83209 37.19025,-27.11961 53.35,-32.09311 11.70787,-3.60334 24.60757,-5.44874 38.225,-5.46839 29.24241,-0.0422 54.9287,9.04438 76.61964,27.10433 2.63083,2.19044 5.29034,3.98262 5.91001,3.98262 0.61967,0 3.15588,-1.98522 5.63602,-4.4116 9.43983,-9.23524 20.5395,-17.94055 45.8476,-35.95761 13.88845,-9.88732 20.62609,-16.40677 29.49668,-28.54151 13.77848,-18.84861 20.98182,-37.01197 21.67557,-54.6554 0.2987,-7.59643 0.2565,-8.02355 -1.07981,-10.92857 -6.66187,-14.4823 -16.86461,-28.90615 -25.83917,-36.52939 -9.85709,-8.37289 -24.45958,-13.56672 -38.05096,-13.53402 -6.4025,0.0154 -9.13471,1.04 -12.6006,4.72525 -4.37985,4.65707 -6.38932,11.76815 -6.40543,22.66756 -0.0161,10.91793 -6.95709,23.54886 -3.8054,26.47636 8.08544,4.84124 30.68907,7.74022 39.23958,4.28674 3.70074,-1.53456 2.17496,-9.46842 1.675,-13.79454 -0.82571,-7.14484 -1.00407,-7.4553 -9.24756,-16.09751 l -7.72157,-8.09506 4.9127,-0.40982 c 6.10098,-0.50895 9.78374,0.23086 14.87849,2.98885 12.09457,6.54729 19.94686,26.02429 17.02915,42.23947 -2.42608,13.48297 -9.4026,22.17884 -20.11994,25.07847 -12.20118,3.3011 -26.35192,0.72346 -41.525,-7.56401 -18.27467,-9.98156 -32.09993,-26.36778 -36.3225,-43.0508 -2.94668,-11.6421 0.44165,-27.3735 8.95778,-41.58929 7.65958,-12.78598 25.98993,-26.55435 34.98226,-29.52548 6.79572,-2.24535 10.76221,-4.91904 22.08246,-4.60212 9.38248,0.26267 11.80876,0.53537 16.5,1.85449 17.29359,4.86276 30.74767,14.62233 40.03457,29.04101 7.89839,12.26291 20.96275,44.03084 28.08101,68.28318 14.14774,48.20214 15.52229,91.91182 3.93168,125.02404 -8.63587,24.67104 -21.43646,45.86202 -37.94726,62.82052 -11.3027,11.60918 -26.40941,21.46331 -41.30624,26.94411 -8.25165,3.03593 -7.57905,1.52592 -6.10855,13.71382 0.50362,4.1741 1.40825,14.69285 2.01029,23.375 2.55066,36.78314 3.07674,40.38909 7.92769,54.33928 3.39856,9.77344 5.29954,14.2297 9.26596,21.72105 4.3714,8.25626 7.68161,13.10229 13.29554,19.46421 7.01906,7.95427 9.99441,10.26113 14.15778,10.97688 12.53007,2.15413 36.35045,2.35598 46.40753,0.39326 18.9301,-3.69439 33.11459,-13.1938 43.11878,-28.87683 5.3288,-8.35368 5.83031,-9.78975 5.8308,-16.69643 3.8e-4,-5.52061 -0.13588,-6.32737 -1.50195,-8.89261 -5.34617,-10.03912 -20.95708,-19.33953 -32.46175,-19.33953 -3.69687,0 -3.80117,0.0446 -6.41163,2.74004 -2.77218,2.86246 -5.24309,7.38685 -7.12464,13.04567 -1.18714,3.5704 -2.82461,11.76547 -2.82461,14.13643 0,1.91136 1.8906,3.73975 5.08764,4.92027 5.31387,1.96215 6.09938,1.87925 16.06469,-1.69544 5.13003,-1.84021 9.44012,-3.22132 9.57799,-3.06913 0.13787,0.15219 -0.82053,2.66792 -2.12978,5.59051 -4.22349,9.428 -10.89539,14.9512 -20.47416,16.94911 -3.78592,0.78965 -5.31965,0.83095 -9.11947,0.24554 -16.1753,-2.49198 -29.42595,-14.22206 -32.06254,-28.38321 -2.16327,-11.61896 6.90655,-31.19605 20.15343,-43.50096 17.77973,-16.5154 41.35644,-24.74371 57.59179,-20.09961 9.19291,2.62961 10.47255,12.04468 16.69544,22.22022 8.06457,13.18701 13.37364,32.27193 13.37539,48.08152 5.5e-4,5.98936 8.63706,6.45294 7.13302,11.40863 -7.00777,23.08998 -20.99614,41.91679 -38.16844,51.37057 -11.12102,6.1224 -19.5471,8.08831 -33.99042,7.9304 -5.50527,-0.0602 -11.24708,-0.19953 -12.75958,-0.30964 z m -85.62008,-45.6071 c 0.099,-0.77064 -0.19695,-2.0361 -0.65756,-2.81213 -1.32904,-2.2391 -5.52712,-13.46339 -7.3939,-19.76883 -5.58262,-18.85653 -9.62927,-45.44964 -11.13281,-73.16072 -0.34424,-6.34464 -0.78784,-14.26785 -0.98577,-17.60714 l -0.35988,-6.07143 -5.59803,-4.73004 c -5.48675,-4.63602 -3.75258,4.61927 -2.97969,11.53663 1.104,9.88083 1.69823,22.25664 1.70048,35.41506 0.003,16.97047 0.78876,23.77229 5.46285,47.2827 0.6253,3.14524 1.04537,5.81968 0.93348,5.9432 -0.21666,0.23916 -12.74883,-16.90206 -18.2917,-25.01898 -17.0245,-24.9305 -27.77943,-49.84071 -29.26064,-68.39076 -0.44492,-5.57188 -0.83336,-14.69546 -3.33025,-11.78122 l -4.1865,4.88627 -0.17543,3.03571 c -0.61941,10.71798 7.12459,37.49225 16.24352,56.16072 4.85336,9.9359 5.86911,11.89311 9.84052,18.96143 12.59281,22.41263 20.09796,30.63206 39.39516,43.14449 5.48628,3.55734 7.70554,4.68692 8.94623,4.55357 1.24513,-0.13383 1.69415,-0.52116 1.82992,-1.57853 z m -35.00657,-75.70596 c -0.19578,-16.82165 -2.64233,-44.8868 -3.45001,-46.55276 -3.13463,-10.45552 -17.88713,-12.47939 -21.96805,-4.00307 -1.15052,0.48736 -0.76059,9.18979 0.57229,16.16078 2.19026,11.45515 6.92229,23.8623 14.08181,36.92181 5.59664,10.20869 7.7034,13.0649 9.47043,12.83942 l 1.47018,-0.18761 z m -7.58374,-71.03571 -7.62326,-0.53677 c -6.62875,-0.46674 -7.70468,-0.41384 -8.24743,0.40553 -0.81286,1.22714 -2.50847,12.64991 -2.11795,13.77333 -0.49131,9.56996 18.75006,9.32901 20.85526,1.3955 -0.77308,-6.49362 -0.75958,-7.25173 -2.86662,-15.03759 z m 17.63899,-1.25632 c -2.42621,0.20653 -8.43418,1.2302 -8.72118,1.42601 -0.61645,2.78241 0.67771,9.42546 2.04861,13.89612 1.3709,4.47065 2.81854,6.76891 2.50906,0.86173 8.9317,0.84387 14.7163,-17.08218 4.16351,-16.18386 z m -43.43622,10.52418 c 0.0424,-0.50926 0.74777,-4.6379 1.30592,-7.06458 0.66256,-3.19099 2.57075,-4.18476 -5.23379,-6.90791 -3.26971,-1.14087 -6.50769,-1.61986 -5.9314,-0.61673 -1.79785,-1.47181 2.10419,6.64279 2.05739,8.31243 -0.0813,2.89809 0.9395,3.88741 2.77739,4.90084 2.73403,1.03529 4.73953,4.79625 5.02449,1.37595 z m 67.81359,-4.43238 c 18.44847,-9.4093 37.68835,-32.38939 54.8015,-65.45485 5.17138,-9.99198 10.5421,-22.30791 12.08805,-27.71992 2.54336,-8.90362 4.15955,-23.7019 4.17748,-38.25 0.0121,-9.76402 -1.08351,-28.6515 -1.86649,-32.17857 -0.54947,-2.4752 -0.77496,-2.75006 -2.39779,-2.9227 -1.34588,-0.14319 -1.86669,0.0833 -2.09454,0.91071 -0.62981,2.28717 -4.634,11.08662 -6.54782,14.38923 -11.9496,20.62104 -38.2088,44.85629 -75.91636,70.06504 -15.20531,10.16526 -20.30984,14.08488 -20.5255,15.76096 -2.42727,14.41155 0.20884,15.08991 13.42083,5.33207 16.29068,-9.80988 28.21462,-13.65889 32.99046,-15.67118 15.38828,-5.83844 22.93395,-8.1929 37.50444,-15.36806 0,0 -3.6618,4.54568 -6.61738,12.47841 -13.77673,36.97653 -32.53644,59.37613 -49.70627,67.97015 -6.4384,2.54608 1.53977,12.61192 3.85144,17.70715 0.49655,0.98719 2.82327,-5.00083 6.83795,-7.04844 z m -83.40563,-6.69589 c 4.10104,-8.04896 -2.26296,-10.18993 -10.88213,-16.41251 -10.54624,-7.91472 -15.8987,-11.36069 -27.73071,-17.85332 -15.94984,-8.75223 -21.06595,-12.33631 -33.9263,-16.12326 -7.63419,-2.54398 -24.0322,-2.06665 -24.03166,-2.25502 0.002,-0.48684 17.67055,-6.86224 26.38012,-9.19749 17.58461,-4.71487 21.24022,-6.06938 34.91534,-5.64942 13.15494,0.40399 23.75269,2.64209 35.75,7.54991 5.12344,2.09588 17.1731,8.1585 18.20445,9.25661 1.79723,1.91358 3.79555,-3.16118 3.79555,-6.62858 0,-2.27978 -1.54482,-3.60555 -8.525,-7.31617 -11.18065,-5.94358 -23.0218,-9.18437 -40.15,-10.98864 -14.24354,-1.50039 -42.00566,-0.54458 -55.825,1.92198 -10.57812,1.88805 -27.22189,10.55478 -42.24053,21.99544 -3.4368,2.61803 -3.99168,3.28552 -3.85,4.63131 0.15403,1.46325 0.33736,1.55994 2.64053,1.39264 1.36125,-0.0989 7.05375,-0.2154 12.65,-0.25893 8.62941,-0.0671 11.00701,0.12344 15.65229,1.2546 22.57662,5.49756 49.49431,18.16412 78.67271,37.02073 11.5856,7.48722 17.0721,10.96467 18.50034,7.66012 z m 39.43537,-24.82741 c 0,1.65883 5.84767,16.14567 7.02258,17.44264 0.47142,0.5204 10.45648,-0.0403 12.81874,-0.59358 7.22483,-3.25409 5.38531,-13.14113 0.23497,-19.37727 -2.57516,-3.11806 -9.34787,-1.75964 -9.57869,-5.33053 -0.36406,-5.63213 -7.30983,2.18396 -10.4976,7.85874 z m -4.36714,13.48246 c -0.64833,-1.4192 -1.25484,-2.67514 -1.34781,-2.79098 -0.17518,-0.2183 -2.44576,4.46402 -2.44576,5.04358 0,0.18026 1.11878,0.32776 2.48618,0.32776 h 2.48618 z m -11.62126,-2.27679 c 1.02315,-2.17053 2.70793,-5.3766 3.74398,-7.12459 2.25832,-3.81019 -0.1635,-10.15905 -2.04331,-12.87967 -10.98595,-10.0223 -1.6658,1.65225 -2.78661,1.79544 -1.26727,0.16188 -2.09411,2.51196 -5.29546,9.36061 -4.04943,8.66296 -9.70394,8.5764 0.0466,12.48644 0.68062,0.30987 1.96584,0.50597 2.85603,0.43579 1.39433,-0.10991 1.8762,-0.67423 3.47877,-4.07402 z m 52.53088,-1.295 c 9.55734,-5.31281 18.40462,-15.09201 26.70306,-29.51578 5.38446,-9.3589 9.51449,-18.40188 9.33451,-20.43852 -0.26753,-3.02724 -2.00708,-2.7331 -17.79336,3.0087 -18.61705,6.7714 -43.22885,22.47608 -43.22885,25.76648 6.80547,2.43579 9.73487,14.13368 13.16585,22.64354 1.5592,5.4454 8.30118,0.46049 11.81879,-1.46442 z m -70.00866,-5.28535 c 3.12029,-15.14181 10.77034,-21.86021 8.1925,-23.44621 -21.77239,-13.43415 -51.04955,-18.45643 -70.61203,-14.11629 0,0 -9.12668,1.1585 -9.27369,2.55451 5.01487,1.61024 11.24907,4.5181 16.42369,6.93974 15.96836,7.48914 30.53229,17.56439 43.1712,25.97569 8.11285,4.77381 9.93725,7.78504 12.09833,2.09256 z m 31.46287,-15.22074 c 5.44955,-5.75608 5.99705,-8.67929 1.90449,-10.67735 -2.71181,-1.32395 -7.11092,-0.74952 -8.79305,1.83789 -1.96079,3.12339 -12.04296,-7.85078 -0.32023,4.69456 2.73459,2.92648 4.93698,6.54757 7.20879,4.1449 z"
         style="fill:#dc6b00;fill-opacity:1"
         sodipodi:nodetypes="ssssssssssssssssssscccsssssssssssssssssssssssssccsscssssssssssssssssssssssssssssssssssssssscsssscsssscsssscssscssssscsccssscscsscccccsccccsccccsssssssssccccsccsccscsssssssssccssssccccsscssscsssscsccsscssscccccccccccscsc" />
      <path
         inkscape:connector-curvature="0"
         id="path4149"
         d="m 551.28882,828.1471 c -54.32353,-3.95493 -99.15427,-20.29947 -129.25,-47.12239 -18.14638,-16.17302 -34.44622,-42.92262 -42.86578,-70.34685 -5.69008,-18.53377 -7.98787,-37.82128 -6.30759,-52.94543 0.48565,-4.3713 0.45942,-5.53422 -0.13905,-6.16626 -0.40567,-0.42842 -3.21258,-1.92885 -6.23758,-3.33429 -7.05538,-3.278 -18.75662,-9.72349 -31.625,-17.42027 -24.91421,-14.90157 -32.27374,-17.82624 -51.68429,-20.53931 -8.62486,-1.20553 -25.87057,-0.92009 -31.9157,0.52824 -12.20099,2.92318 -19.95176,6.65689 -28.05,13.51228 -5.29127,4.47922 -7.76346,8.1357 -13.34161,19.73289 -13.48266,28.03098 -14.85874,51.59788 -4.42364,75.76003 2.80128,6.48628 6.80949,11.7241 10.34025,13.51237 2.83675,1.43676 10.41481,1.53023 14.61268,0.18023 6.2138,-1.99831 13.49544,-7.32746 19.54087,-14.30123 4.30334,-4.96417 5.17145,-6.86528 5.17145,-11.32523 0,-2.7506 -0.37598,-4.40424 -1.62886,-7.16408 -15.90534,-33.9993 -26.21022,-11.60935 -29.94776,12.32518 l -2.40967,-3.40304 c -4.44993,-6.28439 -6.71371,-12.74875 -6.71371,-19.17139 0,-18.81699 18.33873,-38.57094 35.80762,-38.57094 9.94788,0 18.22094,6.47417 25.31035,19.80685 5.90413,11.10357 9.7925,27.35012 9.82194,41.03835 0.0435,20.21155 -7.61387,41.7985 -17.87889,50.40265 -13.1222,10.99904 -30.9525,13.68014 -51.82244,7.79241 -18.16567,-5.43847 -26.02572,-12.01198 -35.27851,-26.75455 -15.79543,-25.41275 -18.6187,-52.85634 -8.03822,-78.13562 6.36716,-15.21267 24.67367,-45.00945 39.17724,-63.76724 7.1207,-9.20936 22.38429,-25.70171 30.12591,-32.55115 16.7641,-14.83209 37.19025,-27.11961 53.34999,-32.09311 11.70787,-3.60334 24.60757,-5.44874 38.225,-5.46839 29.24241,-0.0422 54.9287,9.04438 76.61964,27.10433 2.63083,2.19044 5.29034,3.98262 5.91001,3.98262 0.61967,0 3.15588,-1.98522 5.63602,-4.4116 9.43983,-9.23524 20.5395,-17.94055 45.8476,-35.95761 13.88845,-9.88732 20.62609,-16.40677 29.49668,-28.54151 13.77848,-18.84861 20.98182,-37.01197 21.67557,-54.6554 1.16124,-15.69714 -16.01888,-37.93756 -26.91898,-47.45796 -9.85709,-8.37289 -24.45958,-13.56672 -38.05096,-13.53402 -6.4025,0.0154 -9.13471,1.04 -12.6006,4.72525 -4.37985,4.65707 -6.38932,11.76815 -6.40543,22.66756 1.47592,16.45774 0.73815,29.17404 16.83211,29.25364 20.35961,-0.35345 27.70633,-10.78182 11.02951,-28.38259 l -7.72157,-8.09506 4.9127,-0.40982 c 6.10098,-0.50895 9.78374,0.23086 14.87849,2.98885 12.09457,6.54729 19.94686,26.02429 17.02915,42.23947 -2.42608,13.48297 -9.4026,22.17884 -20.11994,25.07847 -12.20118,3.3011 -26.35192,0.72346 -41.525,-7.56401 -18.27467,-9.98156 -32.09993,-26.36778 -36.3225,-43.0508 -2.94668,-11.6421 0.44165,-27.3735 8.95778,-41.58929 7.65958,-12.78598 22.38976,-27.57951 31.26104,-30.89463 9.83143,-3.67392 14.662,-4.44275 25.98225,-4.12583 9.38248,0.26267 11.63019,1.42823 16.32143,2.74735 17.29359,4.86276 30.74767,14.62233 40.03457,29.04101 7.89839,12.26291 20.96275,44.03084 28.08101,68.28318 14.14774,48.20214 15.52229,91.91182 3.93168,125.02404 -8.63587,24.67104 -21.43646,45.86202 -37.94726,62.82052 -11.3027,11.60918 -26.40941,21.46331 -41.30624,26.94411 -8.25165,3.03593 -7.57905,1.52592 -6.10855,13.71382 0.50362,4.1741 1.40825,14.69285 2.01029,23.375 2.55066,36.78314 3.07674,40.38909 7.92769,54.33928 3.39856,9.77344 5.29954,14.2297 9.26596,21.72105 4.3714,8.25626 7.68161,13.10229 13.29554,19.46421 7.01906,7.95427 9.99441,10.26113 14.15778,10.97688 12.53007,2.15413 36.35045,2.35598 46.40753,0.39326 18.9301,-3.69439 33.11459,-13.1938 43.11878,-28.87683 5.09635,-8.51549 8.51747,-17.63901 4.32885,-25.58904 -5.34617,-10.03912 -20.95708,-19.33953 -32.46175,-19.33953 -3.69687,0 -3.80117,0.0446 -6.41163,2.74004 -2.77218,2.86246 -5.24309,7.38685 -7.12464,13.04567 -6.07038,17.30351 -0.21778,23.97504 18.32772,17.36126 5.13003,-1.84021 9.44012,-3.22132 9.57799,-3.06913 0.13787,0.15219 -0.82053,2.66792 -2.12978,5.59051 -4.22349,9.428 -10.89539,14.9512 -20.47416,16.94911 -3.78592,0.78965 -5.31965,0.83095 -9.11947,0.24554 -16.1753,-2.49198 -29.42595,-14.22206 -32.06254,-28.38321 -2.16327,-11.61896 6.90655,-31.19605 20.15343,-43.50096 17.77973,-16.5154 41.35644,-24.74371 57.59179,-20.09961 9.19291,2.62961 19.31138,11.03453 25.53427,21.21007 3.29119,6.88953 5.94041,9.13972 9.11776,20.35283 3.82086,13.48413 5.94646,28.87759 2.55182,40.14747 -7.00777,23.08998 -20.99614,41.91679 -38.16844,51.37057 -11.12102,6.1224 -19.5471,8.08831 -33.99042,7.9304 -5.50527,-0.0602 -11.24708,-0.19953 -12.75958,-0.30964 z M 465.66874,782.54 c 0.099,-0.77064 -0.19695,-2.0361 -0.65756,-2.81213 -1.32904,-2.2391 -6.41998,-13.10625 -8.28676,-19.41169 -5.58262,-18.85653 -8.73641,-45.80678 -10.23995,-73.51786 -0.34424,-6.34464 -0.78784,-14.26785 -0.98577,-17.60714 l -0.35988,-6.07143 c -3.02591,-0.24318 -6.36891,-0.0138 -9.39917,0.0396 l -2.44927,-15.96206 c 3.14035,-0.39373 6.59461,0.66809 9.39586,-1.69991 -1.25143,-14.34414 -8.97039,-30.60543 -16.74869,-43.10207 4.67225,-5.40127 5.3936,-5.41409 11.81521,-9.8059 6.1347,8.29211 11.80783,20.72984 14.96848,31.58357 6.87326,23.60284 7.23065,18.97703 12.30192,16.49743 18.52517,-9.44841 37.73202,-32.3719 54.87313,-65.49138 5.17138,-9.99198 10.5421,-22.30791 12.08805,-27.71992 2.54336,-8.90362 4.15955,-23.7019 4.17748,-38.25 0.0121,-9.76402 -1.08351,-28.6515 -1.86649,-32.17857 -0.54948,-2.4752 -0.77496,-2.75006 -2.39779,-2.9227 -1.34588,-0.14319 -1.86669,0.0833 -2.09454,0.91071 -0.62981,2.28717 -4.634,11.08662 -6.54782,14.38923 -11.9496,20.62104 -38.2088,44.85629 -75.91636,70.06504 -15.20531,10.16526 -20.30984,14.08488 -20.5255,15.76096 0.84314,3.64091 4.57069,6.75971 6.42886,10.087 -4.61224,3.87186 -7.78216,5.88735 -11.54096,10.21259 -2.64388,-3.92362 -6.6734,-10.02399 -9.46856,-5.72374 -5.87523,11.29032 -15.52043,30.41632 -16.65098,32.73886 -1.54641,-0.333 -10.76434,-4.84593 -13.18222,-6.54318 0.31939,-3.10254 19.38672,-34.3444 21.76436,-39.3804 0,-2.27978 -1.54482,-3.60555 -8.525,-7.31617 -11.18065,-5.94358 -23.0218,-9.18437 -40.15,-10.98864 -14.24354,-1.50039 -42.00566,-0.54458 -55.825,1.92198 -10.57812,1.88805 -27.22188,10.55478 -42.24052,21.99544 -3.4368,2.61803 -3.99168,3.28552 -3.85,4.63131 0.15403,1.46325 0.33736,1.55994 2.64053,1.39264 9.52187,-0.11179 20.01555,-0.99212 28.30228,0.99567 22.52016,5.48381 48.85279,17.86188 78.79413,37.03843 10.59684,6.47622 13.65705,10.68699 16.14093,-2.68085 6.22391,4.08237 7.61514,4.71141 13.09253,7.05388 -3.52773,17.50501 21.1221,16.91065 33.00897,17.10469 1.66996,7.92841 1.44537,9.13641 2.24775,15.85145 -21.72292,-1.76195 -23.65694,-2.20247 -38.2116,-5.36209 l -0.17543,3.03571 c -0.61941,10.71797 7.12459,37.49224 16.24352,56.16071 4.85336,9.93591 5.86911,11.89312 9.84052,18.96143 12.59281,22.41264 20.09795,30.63206 39.39516,43.1445 5.48628,3.55734 7.70554,4.68692 8.94623,4.55357 1.24513,-0.13384 1.69415,-0.52117 1.82992,-1.57854 z"
         style="fill:#759e35;fill-opacity:1"
         sodipodi:nodetypes="ssssssssssssssssccssssssccssssssssssccssccccssssssssssssssssssssssccssccssssssscscssscssssccccccscsssssssscccccccsssscccccccccssssccc" />
    </g>
    <g
       transform="matrix(0.10265346,0,0,0.09857533,-18.131627,-85.75634)"
       id="g4301">
      <path
         style="font-style:normal;font-variant:normal;font-weight:normal;font-stretch:normal;font-size:180.00001526px;line-height:125%;font-family:Overlock;-inkscape-font-specification:'Overlock, Normal';text-align:start;letter-spacing:0px;word-spacing:0px;writing-mode:lr-tb;text-anchor:start;fill:#759e35;fill-opacity:1;stroke:none;stroke-width:1px;stroke-linecap:butt;stroke-linejoin:miter;stroke-opacity:1"
         d="m 1216.2129,888.03906 c -3.0434,0.46372 -9.2777,-0.66294 -7.252,4.0586 2.3643,38.2913 0.8647,77.66798 0.9417,116.37194 -0.1164,5.787 -1.3164,15.4697 6.2185,17.3644 4.6095,1.1253 9.5594,0.2243 13.7988,-1.7852 -6.1487,-23.1351 -3.0425,-47.28855 -3.7976,-70.94915 -0.1481,-19.56708 1.4101,-39.15792 0.9734,-58.68168 -0.9378,-4.98829 -6.4086,-6.74622 -10.8828,-6.37891 z m -198.5781,20.70313 c -9.3417,0.23374 -14.4931,12.90567 -7.9356,19.58593 5.8321,7.22487 18.6819,2.87142 19.5,-6.19335 1.1963,-6.80773 -4.5103,-13.85047 -11.5644,-13.39258 z m -61.07425,8.63672 c -3.39831,0.29452 -9.1089,-0.31282 -6.9375,4.78515 0.41213,5.31586 0.65193,10.57016 0.83398,15.90625 -5.5167,0.2503 -14.75742,-1.09844 -16.65234,5.92578 -0.31147,3.6314 -0.9467,10.80353 4.48433,8.89529 4.13076,0.98332 14.11473,-4.31913 12.57036,2.77854 0.70963,17.50582 -2.37762,35.41288 1.67773,52.64258 2.08629,10.0207 10.66734,18.0068 20.95703,18.8281 8.11731,0.9517 18.89634,0.8414 23.79492,-6.8613 1.99629,-4.6274 -1.26484,-9.4273 -4.5332,-12.5039 -5.4134,7.0958 -19.68065,9.5829 -24.05274,0.3691 -3.96046,-15.81143 -1.37764,-32.25499 -1.91992,-48.4863 -2.06795,-7.73229 2.67133,-8.53109 9.04293,-7.71491 6.72698,-0.89069 15.29076,1.86702 20.8809,-3.08001 2.49642,-3.32393 1.76854,-8.14518 0.0742,-11.66211 -9.78464,1.1129 -19.45752,0.92774 -29.35547,1.04492 -0.42006,-6.16468 3.27757,-15.07297 -3.13672,-19.29687 -2.30472,-1.38938 -5.09811,-1.63078 -7.72851,-1.57031 z M 824.60742,936.2832 c -19.83327,-0.0477 -38.15757,15.95034 -40.3075,35.76561 -2.43843,16.96874 -0.0534,37.54159 15.11414,48.14649 13.89714,9.7138 33.57001,9.6402 48.21289,1.6289 6.03055,-2.9214 6.45731,-12.0213 0.56836,-15.3398 -2.47822,-1.456 -6.22791,-4.4714 -7.29492,-0.2793 -6.43648,9.4474 -20.87187,9.0457 -29.72851,3.4121 -6.36163,-4.6607 -9.08493,-12.71056 -10.25196,-20.2129 14.5991,-0.65878 30.27098,0.61428 43.78125,-5.92383 10.97786,-6.1774 14.34623,-21.96758 8.38867,-32.68359 -5.92975,-9.87308 -17.11014,-15.14532 -28.48242,-14.51368 z m 73.83985,0.0137 c -13.14743,0.71677 -28.40656,9.62122 -29.28321,24.01367 -1.19873,11.43876 5.74574,23.04123 16.85742,26.55273 9.13647,3.68922 20.57198,3.03708 28.03125,10.13477 4.99244,7.42843 -2.29964,16.37143 -10.36914,16.29883 -9.41299,0.874 -22.21371,-1.6175 -25.04101,-12.1524 -5.83988,0.9068 -13.02803,5.5739 -11.04883,12.3828 2.96042,9.3846 14.29503,12.1957 22.91306,13.5759 14.21787,2.274 31.98688,-2.6067 37.96975,-16.9118 4.50459,-11.13898 1.2111,-25.63852 -9.93945,-31.49607 -10.39399,-6.06666 -24.15346,-4.50569 -33.16406,-12.95508 -5.10926,-7.58558 3.35502,-15.96541 11.17383,-15.37695 8.10022,-0.0931 17.63351,3.68436 20.19531,12.07617 6.29476,-0.52186 12.95286,-5.97972 11.02734,-12.82226 -2.65841,-9.00784 -13.52063,-11.63046 -21.69531,-12.96485 -2.5284,-0.30602 -5.08086,-0.43676 -7.62695,-0.35546 z M 1103,936.28516 c -3.0172,0.37366 -8.771,0.27343 -6.7031,4.56445 1.1939,20.21216 -6.7848,39.62215 -14.9129,57.66455 -1.2576,1.38786 -3.7378,9.33574 -4.6828,6.07564 -6.1811,-21.13166 -13.0883,-42.17323 -21.9688,-62.32418 -2.975,-6.43491 -11.4989,-6.14515 -16.2539,-1.97656 -2.2635,1.74669 -6.101,3.75464 -2.1211,5.97071 10.6233,14.91759 15.3483,33.0919 21.3457,50.13085 2.9938,9.58818 5.5738,19.29978 7.5039,29.09958 6.3731,1.8475 13.8839,0.8407 17.9219,-4.9726 13.8105,-16.2419 20.2806,-37.22544 26.416,-57.26955 1.4034,-7.49634 4.7742,-15.90801 1.6739,-23.35743 -1.6163,-2.86683 -5.1281,-3.83058 -8.2188,-3.60546 z m 54.6289,0.002 c -10.4927,0.45609 -23.3973,2.14819 -29.6504,11.67969 -3.2859,5.16326 -0.8677,12.80351 5.4141,14.14258 3.4062,1.77413 5.5139,0.57615 6.6191,-2.94727 5.7638,-9.63892 21.1729,-12.097 29.3028,-4.33399 3.5613,5.46613 3.5245,12.36036 3.8242,18.6504 -13.9438,1.47898 -28.9019,1.69553 -41.4668,8.60546 -10.5134,6.04985 -10.3951,20.42947 -6.8086,30.55857 4.6949,12.7662 20.237,16.2806 32.3594,14.5801 6.1783,-0.895 11.974,-3.6319 16.9863,-7.293 1.5188,7.6352 11.3707,7.4672 16.8984,4.7598 2.9914,-1.6282 -0.9462,-6.3848 -0.6679,-9.6153 -3.6473,-19.36164 0.6644,-39.36635 -2.2852,-58.87688 -1.4244,-10.78709 -11.2309,-18.4384 -21.6951,-19.42347 -2.9187,-0.4503 -5.8815,-0.54326 -8.8303,-0.48669 z m -141.2187,1.25195 c -3.3638,0.34878 -9.2154,-0.44975 -7.1524,4.66511 1.9663,25.13976 0.4718,50.64052 1.0391,75.91688 0.1907,6.0753 6.5645,9.2828 12.0234,8.0879 3.1465,-0.5422 9.6506,-0.881 6.8633,-5.336 -5.1745,-23.0328 -2.3369,-46.87754 -1.6904,-70.18882 1.2164,-5.11693 -0.5381,-11.97418 -6.5635,-12.78569 -1.4803,-0.33282 -3.0071,-0.39298 -4.5195,-0.35938 z M 825.72461,950.1875 c 9.06188,-0.54448 18.07715,10.61208 11.51953,18.48242 -7.89765,8.28475 -20.37604,6.60649 -30.79068,7.63337 -3.7425,0.50985 -7.53987,0.70423 -5.5101,-4.01423 0.95176,-12.93468 11.81593,-22.83693 24.78125,-22.10156 z m 347.01949,37.94727 c -0.6308,6.35834 0.1297,13.19773 -0.5332,19.28713 -8.0406,6.8728 -21.2314,9.7129 -29.7929,2.4258 -4.7504,-5.3934 -4.3843,-15.42836 3.3203,-17.98637 8.6024,-3.47999 17.9891,-3.8746 27.0859,-5.08789 l -0.059,0.99827 -0.021,0.36306 z"
         id="text4169-1"
         inkscape:connector-curvature="0" />
      <path
         style="font-style:normal;font-variant:normal;font-weight:normal;font-stretch:normal;font-size:180.00001526px;line-height:125%;font-family:Overlock;-inkscape-font-specification:'Overlock, Normal';text-align:start;letter-spacing:0px;word-spacing:0px;writing-mode:lr-tb;text-anchor:start;fill:#759e35;fill-opacity:1;stroke:none;stroke-width:1px;stroke-linecap:butt;stroke-linejoin:miter;stroke-opacity:1"
         d="m 758.8418,902.2168 c -12.93026,0.11147 -25.85754,0.66409 -38.74219,1.76562 4.66341,32.22877 2.31277,64.95408 2.59609,97.50658 0.96518,7.3841 -2.69933,17.1204 3.22227,23.1575 5.46163,3.3486 12.72014,2.1535 18.31641,-0.3184 -5.10423,-17.8336 -3.48878,-36.47149 -3.82422,-54.77732 10.90035,-0.71323 22.28788,1.4412 32.9414,-1.45703 5.09114,-2.85437 4.03735,-10.20614 2.15625,-14.73437 -11.53231,1.18538 -23.30542,0.75094 -35.09765,0.85156 -0.0788,-12.02012 0.26811,-24.06036 -0.55664,-36.0625 17.63637,-0.34936 35.48155,-1.91941 52.30078,3.88476 2.07207,-5.1833 4.57695,-13.86513 -1.33203,-17.45312 -10.1937,-3.24634 -21.4376,-2.03824 -31.98047,-2.36328 z"
         id="text4169-1-9"
         inkscape:connector-curvature="0" />
    </g>
  </g>
</svg>
